Coordinates
version=1
nRows=8
nColumns=60
inDegrees=yes

Units are S.I. units (second, meters, Newtons, ...)
If the header above contains a line with 'inDegrees', this indicates whether rotational values are in degrees (yes) or radians (no).

endheader
time	pelvis_tilt	pelvis_list	pelvis_rotation	pelvis_tx	pelvis_ty	pelvis_tz	hip_flexion_r	hip_adduction_r	hip_rotation_r	knee_angle_r_beta	knee_angle_r	ankle_angle_r	subtalar_angle_r	mtp_angle_r	hip_flexion_l	hip_adduction_l	hip_rotation_l	knee_angle_l_beta	knee_angle_l	ankle_angle_l	subtalar_angle_l	mtp_angle_l	L5_S1_Flex_Ext	L5_S1_Lat_Bending	L5_S1_axial_rotation	L4_L5_Flex_Ext	L4_L5_Lat_Bending	L4_L5_axial_rotation	L3_L4_Flex_Ext	L3_L4_Lat_Bending	L3_L4_axial_rotation	L2_L3_Flex_Ext	L2_L3_Lat_Bending	L2_L3_axial_rotation	L1_L2_Flex_Ext	L1_L2_Lat_Bending	L1_L2_axial_rotation	L1_T12_Flex_Ext	L1_T12_Lat_Bending	L1_T12_axial_rotation	Abs_r3	Abs_r2	Abs_r1	Abs_t1	Abs_t2	arm_flex_r	arm_add_r	arm_rot_r	elbow_flex_r	pro_sup_r	wrist_flex_r	wrist_dev_r	arm_flex_l	arm_add_l	arm_rot_l	elbow_flex_l	pro_sup_l	wrist_flex_l	wrist_dev_l
      0.00000000	     -0.86615369	     24.42791695	     93.51981052	      0.39601656	      0.94724715	      0.18889814	    -27.05766094	     -4.89080873	     -4.59934429	      0.14631389	     -8.38316866	     14.93421273	      0.00000000	      0.00000000	    -25.12911307	     -5.96679790	     -4.06732144	      0.15752080	     -9.02527704	     16.08060892	      0.00000000	      0.00000000	     -5.22475131	      0.15565000	     -0.36376222	     -9.70288566	      0.20701450	     -0.38649736	     -8.58374393	      0.37844742	     -0.38649736	     -5.97136827	      0.37844742	     -0.31829195	     -4.85170407	      0.31740149	     -0.29555681	     -2.98542290	      0.24110185	     -0.27282167	    -37.31987614	      1.76074396	     -2.02313636	      0.00000000	      0.00000000	     13.43809874	    -10.93118175	     15.26270632	     16.24227365	    111.73534171	     13.17697716	     -1.78256469	     16.29503536	    -10.85388723	     37.11305756	     15.99327238	     99.78395524	     17.72663086	     -7.70643144
      0.01000000	     -0.84513608	     24.42642690	     93.51321574	      0.39604115	      0.94727503	      0.18887325	    -27.04428744	     -4.86361093	     -4.57331241	      0.14676945	     -8.40927007	     14.91915563	      0.00000000	      0.00000000	    -25.13457443	     -5.98379722	     -4.07213056	      0.15738859	     -9.01770179	     16.07331674	      0.00000000	      0.00000000	     -5.22797545	      0.15858394	     -0.36048092	     -9.70887321	      0.21091664	     -0.38301098	     -8.58904087	      0.38558099	     -0.38301098	     -5.97505314	      0.38558099	     -0.31542081	     -4.85469800	      0.32338437	     -0.29289075	     -2.98726517	      0.24564652	     -0.27036069	    -37.34290585	      1.79393325	     -2.00488675	      0.00000000	      0.00000000	     13.38591563	    -10.78652616	     13.70942880	     16.25803994	    112.93750478	     13.28024026	     -1.93552385	     16.26275994	    -10.76795592	     36.48428414	     15.95580085	    100.22757323	     17.57414001	     -7.80827601
      0.02000000	     -0.86331873	     24.39511033	     93.55036083	      0.39599266	      0.94725052	      0.18890731	    -27.02335896	     -4.87551009	     -4.59146827	      0.14641882	     -8.38918034	     14.90759849	      0.00000000	      0.00000000	    -25.08561899	     -5.98433430	     -4.03092897	      0.15738439	     -9.01746113	     16.03659297	      0.00000000	      0.00000000	     -5.22474821	      0.15628153	     -0.37221344	     -9.70287989	      0.20785443	     -0.39547679	     -8.58373883	      0.37998291	     -0.39547679	     -5.97136473	      0.37998291	     -0.32568676	     -4.85170118	      0.31868929	     -0.30242342	     -2.98542113	      0.24208009	     -0.27916008	    -37.31985396	      1.76788789	     -2.07013952	      0.00000000	      0.00000000	     13.41552217	    -10.84922225	     14.42885836	     16.29690841	    112.71965272	     13.12751596	     -1.80146907	     16.25357403	    -10.83051476	     36.71861952	     16.01074967	     99.51348201	     17.70718113	     -7.79243474
      0.03000000	     -0.85970542	     24.38707249	     93.53771952	      0.39599052	      0.94725421	      0.18892666	    -27.00952476	     -4.87884701	     -4.57890567	      0.14640154	     -8.38819060	     14.89884488	      0.00000000	      0.00000000	    -25.08199991	     -5.97937916	     -4.04218165	      0.15729146	     -9.01213701	     16.02803407	      0.00000000	      0.00000000	     -5.22562158	      0.15713228	     -0.36484752	     -9.70450184	      0.20898594	     -0.38765049	     -8.58517370	      0.38205143	     -0.38765049	     -5.97236291	      0.38205143	     -0.31924158	     -4.85251220	      0.32042415	     -0.29643861	     -2.98592017	      0.24339791	     -0.27363564	    -37.32609239	      1.77751182	     -2.02917245	      0.00000000	      0.00000000	     13.39985363	    -10.81933182	     13.85312985	     16.27223489	    113.17613973	     13.31013589	     -2.01954071	     16.28601094	    -10.78115381	     36.54296527	     15.95104153	    100.45809338	     17.60600652	     -7.78657951
      0.04000000	     -0.83305412	     24.40619852	     93.51754994	      0.39598403	      0.94728796	      0.18890740	    -27.02975369	     -4.85842314	     -4.55722829	      0.14632170	     -8.38361573	     14.88540357	      0.00000000	      0.00000000	    -25.11624896	     -6.00007744	     -4.07651108	      0.15699049	     -8.99489231	     16.02404910	      0.00000000	      0.00000000	     -5.22761662	      0.15832602	     -0.37599225	     -9.70820682	      0.21057360	     -0.39949177	     -8.58845134	      0.38495387	     -0.39949177	     -5.97464303	      0.38495387	     -0.32899322	     -4.85436479	      0.32285841	     -0.30549370	     -2.98706014	      0.24524700	     -0.28199419	    -37.34034275	      1.79101555	     -2.09115611	      0.00000000	      0.00000000	     13.48574678	    -10.80385094	     14.17397192	     16.16854322	    112.78236166	     13.17723571	     -1.85630810	     16.22875970	    -10.76074743	     36.33715760	     15.92902199	     99.89005989	     17.70731314	     -7.76217367
      0.05000000	     -0.86421630	     24.38505841	     93.54946044	      0.39592913	      0.94727303	      0.18892681	    -27.01661505	     -4.88051119	     -4.59497184	      0.14616227	     -8.37448121	     14.89605832	      0.00000000	      0.00000000	    -25.08030819	     -5.97502190	     -4.03297025	      0.15721460	     -9.00773290	     16.02804445	      0.00000000	      0.00000000	     -5.22502789	      0.15557485	     -0.38045245	     -9.70339930	      0.20691455	     -0.40423072	     -8.58419832	      0.37826468	     -0.40423072	     -5.97168438	      0.37826468	     -0.33289589	     -4.85196090	      0.31724823	     -0.30911761	     -2.98558094	      0.24098544	     -0.28533933	    -37.32185172	      1.75989379	     -2.11596237	      0.00000000	      0.00000000	     13.45823603	    -10.90831554	     15.09928229	     16.25498091	    112.16104509	     13.02065238	     -1.86251816	     16.25849034	    -10.84670572	     36.90789171	     15.99999831	     99.73346890	     17.71973412	     -7.77644044
      0.06000000	     -0.86243522	     24.37855037	     93.53778995	      0.39595015	      0.94728503	      0.18893612	    -27.00421915	     -4.88245320	     -4.58873012	      0.14619222	     -8.37619735	     14.89577331	      0.00000000	      0.00000000	    -25.07188077	     -5.97365783	     -4.03159871	      0.15717591	     -9.00551606	     16.02237779	      0.00000000	      0.00000000	     -5.22573732	      0.15659727	     -0.36349653	     -9.70471678	      0.20827437	     -0.38621506	     -8.58536385	      0.38075060	     -0.38621506	     -5.97249518	      0.38075060	     -0.31805946	     -4.85261968	      0.31933315	     -0.29534093	     -2.98598631	      0.24256917	     -0.27262240	    -37.32691911	      1.77145962	     -2.02165864	      0.00000000	      0.00000000	     13.37924793	    -10.84685193	     14.20559355	     16.25685665	    112.77232777	     12.80639782	     -2.07330422	     16.31235742	    -10.81526464	     37.08431871	     15.95738448	    100.07859382	     17.24568187	     -7.86432288
      0.07000000	     -0.85024129	     24.36714927	     93.53469771	      0.39593048	      0.94726000	      0.18887887	    -27.01891406	     -4.87316815	     -4.59177626	      0.14541108	     -8.33144117	     14.93145223	      0.00000000	      0.00000000	    -25.06897549	     -5.98280314	     -4.06018836	      0.15712382	     -9.00253201	     16.00249371	      0.00000000	      0.00000000	     -5.22244464	      0.15796032	     -0.36426274	     -9.69860194	      0.21008723	     -0.38702917	     -8.57995430	      0.38406473	     -0.38702917	     -5.96873198	      0.38406473	     -0.31872990	     -4.84956209	      0.32211269	     -0.29596348	     -2.98410487	      0.24468054	     -0.27319706	    -37.30339983	      1.78687876	     -2.02592011	      0.00000000	      0.00000000	     13.36869869	    -10.85222164	     14.01666617	     16.29546138	    112.75409634	     13.35299800	     -1.90364313	     16.31655406	    -10.77291017	     36.78559348	     15.90102546	    100.22773229	     17.67856246	     -7.74591954
